<?xml version="1.0" encoding="UTF-8"?>
<svg id="_图层_2" data-name="图层 2" xmlns="http://www.w3.org/2000/svg" viewBox="0 0 230 230" width="24" height="24">
  <defs>
    <style>
      .cls-1 {
        fill: #472b29;
      }

      .cls-2 {
        fill: #fce0a2;
      }

      .cls-3 {
        fill: #fdfcee;
      }
      
    </style>
  </defs>
  <g id="_图层_1-2" data-name="图层 1">
    <g>
      <path class="cls-2" d="M40,226.5c-20,0-36.5-16.5-36.5-36.5V40C3.5,20,20,3.5,40,3.5h150c20,0,36.5,16.5,36.5,36.5v150c0,20-16.5,36.5-36.5,36.5H40Z"/>
      <path class="cls-1" d="M190,7c18,0,33,15,33,33v150c0,18-15,33-33,33H40c-18,0-33-15-33-33V40C7,22,22,7,40,7h150M190,0H40C18,0,0,18,0,40v150c0,22,18,40,40,40h150c22,0,40-18,40-40V40c0-22-18-40-40-40h0Z"/>
    </g>
    <path class="cls-1" d="M207.5,102c-1.5,0-2.5-1-2.5-2.5v-19.5c0-1.5,1-2.5,2.5-2.5s2.5,1,2.5,2.5v19.5c0,1.5-1,2.5-2.5,2.5Z"/>
    <path class="cls-1" d="M207.5,67.5c-1.5,0-2.5-1-2.5-2.5v-10c0-1.5,1-2.5,2.5-2.5s2.5,1,2.5,2.5v10c0,1.5-1,2.5-2.5,2.5Z"/>
    <path class="cls-1" d="M185,210H45c-14,0-25-11-25-25V45c0-14,11-25,25-25h127c1.5,0,2.5,1,2.5,2.5s-1,2.5-2.5,2.5H45c-11,0-20,9-20,20v140c0,11,9,20,20,20h140c11,0,20-9,20-20v-72c0-1.5,1-2.5,2.5-2.5s2.5,1,2.5,2.5v72c0,14-11,25-25,25Z"/>
    <g>
      <path class="cls-3" d="M126.5,156c0,4.5,5,7,15,7v9h-53v-9c10,0,15-2.5,15-7v-48c0-5-5-7.5-15-7.5v-9h38.5v64.5h-.5ZM129,65.5c0,3.5-1.5,7-4,9.5s-6.5,4-10.5,4c-2,0-4-.5-6-1-2-.5-3.5-1.5-4.5-3s-2.5-2.5-3-4.5c-1-1.5-1-3.5-1-5.5,0-4,1.5-7,4.5-9.5,3-2.5,6.5-4,10.5-4s7.5,1.5,10.5,4c2,3,3.5,6,3.5,10Z"/>
      <path class="cls-1" d="M144,175h-58v-14h2.5c5.5,0,12.5-1,12.5-4.5v-48c0-4-6.5-5-12.5-5h-2.5v-14h43.5v67c0,1,0,1.5.5,2,1,1,3.5,2.5,12,2.5h2.5v14h-.5ZM91,170h48.5v-4c-6.5-.5-10.5-1.5-13-4-1.5-1.5-2-3.5-2-5.5v-62h-33.5v4c10,.5,15,3.5,15,9.5v48c0,6-5,9-15,9.5v4.5ZM114,81.5c-2.5,0-4.5-.5-6.5-1.5-2-1-4-2-5.5-3.5s-3-3-3.5-5c-1-2-1.5-4-1.5-6.5,0-4.5,2-8.5,5-11.5,3.5-3,7.5-4.5,12-4.5s8.5,1.5,12,4.5c3.5,3,5,7,5,11.5s-1.5,8-5,11.5c-3,3.5-7,5-12,5ZM114,54.5c-3.5,0-6.5,1-9,3-2.5,2-3.5,4.5-3.5,7.5,0,1.5.5,3,1,4,.5,1.5,1.5,2.5,2.5,3.5s2.5,2,4,2.5,3,1,5,1c3.5,0,6.5-1,8.5-3.5,2.5-2,3.5-4.5,3.5-7.5s-1-5.5-3.5-7.5c-2-2-5-3-8.5-3Z"/>
    </g>
  </g>
</svg>