<?xml version="1.0" encoding="UTF-8"?>
<svg id="_图层_1" data-name="图层_1" xmlns="http://www.w3.org/2000/svg" version="1.1" viewBox="0 0 24 24" width="24" height="24">
  <!-- Generator: Adobe Illustrator 29.3.0, SVG Export Plug-In . SVG Version: 2.1.0 Build 146)  -->
  <defs>
    <style>
      .st0 {
        fill: #b2c8dd;
        opacity: .6;
      }

      .st0, .st1, .st2, .st3, .st4 {
        isolation: isolate;
      }

      .st5 {
        fill: #6b3811;
      }

      .st6 {
        fill: #8b4513;
      }

      .st7 {
        fill: #f2e8c9;
      }

      .st1 {
        fill: #a6c6a9;
      }

      .st1, .st2, .st3 {
        opacity: .8;
      }

      .st2 {
        fill: none;
        stroke: #6b8c6e;
        stroke-width: .3px;
      }

      .st3 {
        fill: #c53f3f;
      }

      .st4 {
        fill: #d6e8d9;
        opacity: .7;
      }

      .st8 {
        fill: #f5ecd6;
      }
    </style>
  </defs>
  <g>
    <rect class="st6" x="3" y="3" width="18" height="18" rx="1" ry="1"/>
    <rect class="st7" x="5" y="5" width="14" height="14" rx=".5" ry=".5"/>
  </g>
  <g>
    <path class="st5" d="M3,3h3v1h-2v2h-1v-3Z"/>
    <path class="st5" d="M18,3h3v3h-1v-2h-2v-1Z"/>
    <path class="st5" d="M3,18h1v2h2v1h-3v-3Z"/>
    <path class="st5" d="M20,18h1v3h-3v-1h2v-2Z"/>
  </g>
  <g>
    <rect class="st8" x="5" y="5" width="14" height="14"/>
    <path class="st4" d="M5,14c2-3,3-1,5-3,1.9-.9,3.8.8,5.7-.7s.5-.2.8-.1c1.6.6,1.8-.8,2.6.8v8H5v-5Z"/>
    <path class="st1" d="M5,16c3-2,4-1,7-3,3,1,5,0,7,2v4H5v-3Z"/>
    <path class="st0" d="M5,17h14v2H5v-2Z"/>
    <path class="st6" d="M16,16.9c-.5.2-1.5.2-2,0l.5-.5h1l.5.5Z"/>
    <path class="st6" d="M15.2,16.4h-.4v-.5h.4v.5Z"/>
    <path class="st2" d="M7,13l1-1,1,1.5"/>
    <path class="st2" d="M13,12l1-1,1,1.5"/>
    <path class="st2" d="M16,14l1-1,1,1.5"/>
    <rect class="st3" x="16" y="7" width="2" height="2" rx=".2" ry=".2"/>
  </g>
</svg>