<?xml version="1.0" encoding="UTF-8"?>
<svg id="_图层_1" data-name="图层_1" xmlns="http://www.w3.org/2000/svg" version="1.1" viewBox="0 0 24 24" width="24" height="24">
  <!-- Generator: Adobe Illustrator 29.3.0, SVG Export Plug-In . SVG Version: 2.1.0 Build 146)  -->
  <defs>
    <style>
      .st0 {
        fill: #8b4513;
      }

      .st1 {
        fill: #f2e8c9;
      }

      .st2 {
        fill: #a67c52;
      }
    </style>
  </defs>
  <g>
    <path class="st0" d="M22,10.4h-2l-7.2-5.4c-.5-.4-1.1-.4-1.6,0l-7.2,5.4h-2l.9-.7L11.2,3.9c.5-.3,1.1-.3,1.5,0l8.3,5.8.9.7Z"/>
    <rect class="st0" x="2" y="10.4" width="20" height="1"/>
  </g>
  <g>
    <rect class="st1" x="5" y="11.4" width="14" height="8"/>
    <rect class="st0" x="4" y="19.4" width="16" height="1"/>
  </g>
  <path class="st2" d="M11.4,4.8l-5.2,5.5h-2.3l7.2-5.4c0,0,.2,0,.2-.1Z"/>
  <polygon class="st2" points="12 4.8 13.8 10.4 10.2 10.4 12 4.8"/>
  <path class="st2" d="M20,10.4h-2.3l-5.2-5.5c0,0,.2,0,.2.1l7.2,5.4Z"/>
  <g>
    <path class="st2" d="M11,13.4h2c.6,0,1,.4,1,1v5h-4v-5c0-.6.4-1,1-1Z"/>
    <rect class="st0" x="11.8" y="13.8" width=".5" height="5.6"/>
    <circle class="st0" cx="11" cy="16.4" r=".3"/>
    <circle class="st0" cx="13" cy="16.4" r=".3"/>
  </g>
  <g>
    <rect class="st2" x="5" y="11.4" width=".8" height="8"/>
    <rect class="st2" x="18.2" y="11.4" width=".8" height="8"/>
  </g>
  <path class="st0" d="M17.7,10.4h-3.9l-1.8-5.5-1.8,5.5h-3.9l5.2-5.5c.4-.2.8-.2,1.1,0l5.2,5.5Z"/>
</svg>