<?xml version="1.0" encoding="UTF-8"?>
<svg id="_图层_1" data-name="图层_1" xmlns="http://www.w3.org/2000/svg" version="1.1" viewBox="0 0 24 24" width="24" height="24">
  <!-- Generator: Adobe Illustrator 29.3.0, SVG Export Plug-In . SVG Version: 2.1.0 Build 146)  -->
  <defs>
    <style>
      .st0 {
        fill: #4a854a;
      }

      .st1 {
        fill: none;
        stroke-miterlimit: 10;
      }

      .st1, .st2 {
        stroke: #8b4513;
        stroke-width: .5px;
      }

      .st3 {
        fill: #292929;
      }

      .st4 {
        fill: #c53f3f;
      }

      .st5 {
        fill: #4b6cb7;
      }

      .st2 {
        fill: #f2e8c9;
      }
    </style>
  </defs>
  <g>
    <path class="st2" d="M2.6,14.8c.8,4,4,6.4,9.1,5,5.4-1.5,10.2-3.3,9.5-7.3s-5.8-5.7-8.5-3.1c-.9-2.4-4.6-1.9-4.9,1-2.5-1.1-5.8,1.7-5.2,4.4Z"/>
    <circle class="st4" cx="6.7" cy="13.9" r="1.6"/>
    <circle class="st5" cx="10.6" cy="11.2" r="1.6"/>
    <circle class="st0" cx="15.1" cy="11.4" r="1.6"/>
  </g>
  <path class="st3" d="M17.4,10.5s0,0,0,0c0,.1,0,.2,0,.3-.2.7-.8.9-1.5,1s-.8,0-1.1,0c-.1,0,.2-.2.2-.2.5-.3.5-.8.7-1.3s.4-.6.7-.7c0,.3.4.6.7.7s0,0,.1,0,.1,0,.2,0Z"/>
  <path class="st3" d="M21.8,2.5c0,0,0,.2,0,.3l-4.4,7.6c-.1,0-.3,0-.5,0-.4-.2-.5-.5-.5-.7l4.6-7.2"/>
  <path class="st1" d="M5.6,17c.4.4,1.1,1.1,2.2,1.4.9.3,1.7.2,2.8,0,.7-.1,3.2-.5,5.7-2.3.4-.2.6-.5.8-.6"/>
</svg>