<?xml version="1.0" encoding="UTF-8"?>
<svg width="200" height="300" viewBox="0 0 200 300" xmlns="http://www.w3.org/2000/svg">
  <!-- 卷轴结构：上卷轴柄、卷轴布、下卷轴柄 -->
  
  <!-- 卷轴布 - 通过class="scroll-paper"设置颜色 -->
  <g class="scroll-paper" fill="#f2e8c9">
    <!-- 主体矩形 -->
    <rect x="15" y="20" width="170" height="260" />
    
    <!-- 卷轴布纹理 -->
    <g opacity="0.1" stroke="#8b4513">
      <!-- 横线纹理 -->
      <path d="M20 40 L180 40" />
      <path d="M20 70 L180 70" />
      <path d="M20 100 L180 100" />
      <path d="M20 130 L180 130" />
      <path d="M20 160 L180 160" />
      <path d="M20 190 L180 190" />
      <path d="M20 220 L180 220" />
      <path d="M20 250 L180 250" />
      
      <!-- 竖线纹理 -->
      <path d="M40 25 L40 275" />
      <path d="M70 25 L70 275" />
      <path d="M100 25 L100 275" />
      <path d="M130 25 L130 275" />
      <path d="M160 25 L160 275" />
    </g>
  </g>
  
  <!-- 下卷轴柄 - 通过class="scroll-handle"设置颜色 -->
  <g class="scroll-handle bottom-handle" fill="#8b4513">
    <!-- 主体圆柱体 -->
    <rect x="10" y="260" width="180" height="30" rx="15" ry="15" />
    
    <!-- 卷轴柄左侧圆端 -->
    <circle cx="10" cy="275" r="10" />
    
    <!-- 卷轴柄右侧圆端 -->
    <circle cx="190" cy="275" r="10" />
    
    <!-- 卷轴柄纹理 -->
    <path d="M30 265 L170 265" stroke="#6b3811" stroke-width="2" fill="none" opacity="0.7" />
    <path d="M30 275 L170 275" stroke="#6b3811" stroke-width="2" fill="none" opacity="0.7" />
    <path d="M30 285 L170 285" stroke="#6b3811" stroke-width="2" fill="none" opacity="0.7" />
  </g>
  
  <!-- 上卷轴柄 - 通过class="scroll-handle"设置颜色，放在最后保证最上层显示 -->
  <g class="scroll-handle top-handle" fill="#8b4513">
    <!-- 主体圆柱体 -->
    <rect x="10" y="10" width="180" height="30" rx="15" ry="15" />
    
    <!-- 卷轴柄左侧圆端 -->
    <circle cx="10" cy="25" r="10" />
    
    <!-- 卷轴柄右侧圆端 -->
    <circle cx="190" cy="25" r="10" />
    
    <!-- 卷轴柄纹理 -->
    <path d="M30 15 L170 15" stroke="#6b3811" stroke-width="2" fill="none" opacity="0.7" />
    <path d="M30 25 L170 25" stroke="#6b3811" stroke-width="2" fill="none" opacity="0.7" />
    <path d="M30 35 L170 35" stroke="#6b3811" stroke-width="2" fill="none" opacity="0.7" />
  </g>
  
  <!-- CSS样式，用于自定义卷轴各部分颜色 -->
  <style>
    /* 卷轴柄默认颜色 */
    .scroll-handle {
      fill: #8b4513;
    }
    
    /* 卷轴布默认颜色 */
    .scroll-paper {
      fill: #f2e8c9;
    }
    
    /* 可以通过以下选择器单独设置上下卷轴柄颜色 */
    .top-handle {
      /* fill: #8b4513; */ /* 可以在这里修改上卷轴柄颜色 */
    }
    
    .bottom-handle {
      /* fill: #8b4513; */ /* 可以在这里修改下卷轴柄颜色 */
    }
  </style>
</svg> 