<?xml version="1.0" encoding="UTF-8"?>
<svg id="_图层_2" data-name="图层 2" xmlns="http://www.w3.org/2000/svg" viewBox="0 0 1020.35 346.97">
  <defs>
    <style>
      .cls-1 {
        font-family: FZL2K--GBK1-0, 'FZLiShu II-S06';
        font-size: 86.21px;
      }

      .cls-1, .cls-2 {
        fill: #fff;
      }

      .cls-3 {
        stroke: #fff;
        stroke-miterlimit: 10;
        stroke-width: 15px;
      }

      .cls-3, .cls-4 {
        fill: none;
      }
    </style>
  </defs>
  <g id="_图层_1-2" data-name="图层 1">
    <path class="cls-2" d="M.5,238.25c-4.1-37.69,17.21-71.23,55.96-76.52,49.47-6.75,90.25,41.34,68.94,88.42-24.59,54.36-108.96,36.76-106.5-25.16,2.26-56.94,82.83-58.8,92.17-8.59,7.01,37.72-40.59,64.61-64.38,36.03-12.26-14.73-4.85-41.3,16.25-37.99,3.67.57,9.82,4.35,9.06,8.63-.68,3.8-5.18,2.42-7.57,2.51-14.39.54-14.49,20.02-1.44,25.53,14.48,6.11,31.96-4.91,35.92-19.38,6.51-23.77-13.28-41.05-35.84-41.38-5.46-.08-9.49,2.67-4.08,6.83,13.66-.21,30.56,5.75,33.73,20.65,2.67,12.59-5.47,25.85-18.46,27.8-6.42.97-14.84-1.82-13.76-9.7.65-4.77,6.29-2.82,9.02-3.01,9.95-.71,12.26-12.98,5.75-19.71-11.15-11.53-31.33-5.58-38.14,7.76-11.62,22.76,7,48.24,30.98,49.74,52.41,3.28,69.22-64.7,24.97-89.98-32.61-18.63-73.64-1.48-80.09,36.18-7.17,41.85,28.08,77.39,73.67,70.18,4.08,0,4.27.08,7.85,0,6.4-.16-4.58,13.37-7.82,15.02-4.57.11-12.04.14-16.92-.3-35.81-3.26-65.19-26.15-69.26-63.57Z"/>
    <g>
      <path class="cls-2" d="M849.87,284.51c-4.16-1.14-12.04-4.3-16.34-6.14-22.84-9.81-52.66-31.57-74.57-50.4-14-12.04-27.85-27.87-41.96-38.97-6.59-5.19-12.08-6.54-18.97-10.14-13.32-6.96-19.82-29.91-27.42-43.14-18.15-31.57-41.54-18.96-63.33-.06-.77.67-6.05,6.69-6.41,6.31-4.48-11.86-6.42-26.42-15.46-35.53-4.13-4.16-8.19-5.98-11.09-12.07-10.3-21.58-11.97-50.11-31.96-65.22-7.48-5.66-8.47-6.55-14.95-13.16C519.33,7.74,510.04-.29,497.96,0c-22.58.56-23.57,26.21-32.02,42.27-7.24,13.76-20.3,17.43-28.97,29.67-6.13,8.64-9.01,19.96-14.46,29.07l-20.09,48.85c-1.15.32-1.25-.33-1.89-.78-6.89-4.91-15.58-17.02-23-23.3-24.59-20.87-43.1-14.35-60.7,10.71-14.44,20.57-25.91,45.25-39.65,66.65-13.01,20.28-19.62,25.28-39.77,37.32-20.2,12.07-45.79,32.85-67.89,40.57-6.19,2.16-23.75,5.52-40.75,7.62-9.7,1.2-1.22,12.12,7.72,13.24,0,0,59.43-1.06,64.62-1.24s9.92-.51,21.7-2.96c11.93-3.23,39.48-21.57,39.48-21.57,23.78-15.5,43.77-31.24,62.8-52.86,7.19-8.16,13.77-18.33,21.11-26.06,10.28-10.82,17.24-10.46,27.53.42l-.04,1.1c-.61.15-1.38.34-1.75.9-11.37,17.12-25.71,28.02-40.49,41.34-.92.83-2.33.97-3.32,2.06-4.43,4.87-5.92,17.26,3.38,15.43,5.92-1.16,27.06-19.44,32.43-24.54,23.47-22.24,41.08-51.09,54.86-80.73,8.47-18.21,23.53-64.35,35.67-76.33,9.14-9.04,16.42-10.67,23.71-23.34,5.41-9.37,9.62-27.12,14.89-34.16,8.39-11.25,23.08,10.93,28.08,15.8,6.23,6.07,14.05,7.4,18.91,15.34,10.56,17.2,13.97,49.21,27.16,62.73,4.68,4.8,8.08,5.44,11.14,12.43,4.54,10.36,7.58,24.21,11.58,35.23,10.2,28.17,28.63,65.95,50.42,84.98,4.3,3.76,18.73,14.38,23.68,7.96,5.04-6.56-9.19-16.07-13.04-20.28-11.34-12.45-29.18-35.19-34.89-51.1-1.75-4.85-1.23-4.93,2.87-6.92,3.72-1.81,5.71-2.51,9.43-.43,5.72,3.21,15.66,22.08,20.71,28.62,9.94,12.87,26.87,27.64,40.06,38.04,7.05,5.56,35.61,26.87,42.61,27.3,5.33.33,9.23-3.94,7.56-9.54-1.11-3.7-14.9-10.82-18.76-13.52-23.32-16.34-48.37-36-65.39-59.45-10.32-14.21-16.28-33.85-37.91-26.99-3.08.97-5.63,3.7-8.89,3.72.96-1.9-1.89-3.36-.05-5.16,11-8.49,31.77-36.58,45.19-18.77,11.49,15.26,16.42,43.31,34.16,53.44,3.22,1.83,7.08,2.71,10.24,4.28,12.85,6.41,29.44,24.92,41,35.26,14.38,12.86,29.7,25.96,45.77,37.35,6.94,4.9,13.39,8.15,22.11,13.57,3.95,2.69,8.52,7.76,12.94,9.88,8.92,4.29,8.24,5.07,19.75,6.5l14.04,1.57c3.65-.45,28.36.54,26.08-2.19-3.7-4.44-20.1-11.83-29.8-14.5ZM383.62,183.47c-.7.79-1.44,1.34-2.54,1.03-1.32-.37-7.96-6.56-10.58-7.95-4.65-2.44-9.95-3.66-15.16-2.94-15.84,2.18-34.76,32.58-46.08,44.93-22.22,24.21-50.32,43.28-79.35,57.48-2.61,1.28-12.52,7-18,8.01s-28.87,2.15-28.87,2.15l51.77-24.76c16.44-10.5,34.3-18.02,46.46-34.28,19.57-26.17,32.53-59.81,52.2-85.08,14-17.97,21.96-13.99,36.92-.11,4.72,4.39,18.25,17.95,21.04,22.98,3,5.41-5.57,13.47-7.8,18.54Z"/>
      <path class="cls-2" d="M516.31,97.82c-2.15,2.43-8.05,2.2-10.56.22-4.25-3.37-5.18-20.5-17.18-10.69-5.92,4.84-16.38,33.56-20.57,42.41-17.22,36.34-43.02,80.72-74.13,105.56-4.08,3.26-11.26,9.46-16.25,4.41-6.47-6.56,4.42-13.1,8.08-16.5,25.52-23.71,44.96-51.61,61.02-83.36,8.77-17.34,15.77-37.76,25.13-54.21,10.95-19.26,33.82-23.51,43.27-.79,1.42,3.4,4.02,9.75,1.18,12.96Z"/>
      <path class="cls-2" d="M599.63,213.94c2.05,2.46,5.17,5.81,7.49,7.95,3.13,2.88,17.06,12.49,18.04,14.66,2.64,5.83-2.74,12.68-9.21,10.42-6.28-2.19-22.11-16.84-26.84-22.43-20.24-23.93-27.1-57.3-40.23-84.98-7.74-16.31-9.21,8.62-19.18,3.51-10.49-5.37,1.06-21.1,7.88-23.74,11.62-4.5,18.7,1.86,23.61,12.09,12.88,26.83,18.83,59.02,38.43,82.52Z"/>
      <path class="cls-2" d="M447.11,216.65c-5.66,6.29-20.63,22.57-28.16,24.6-5.11,1.38-9.75-1.03-9.06-7.05.59-5.13,11.57-11.78,15.47-15.44,16.24-15.29,30.72-36.06,42.17-55.33,9.69-16.3,17.42-44.14,40.63-39.22,5.41,1.15,11.92,8.14,8.43,13.99-5.22,8.75-15.19-5.3-21.09,4.77-14.14,26.21-28.7,51.76-48.4,73.68Z"/>
      <path class="cls-2" d="M546.13,219.21c-3.23-5.3-8.36-16.41-10.7-22.36-1.84-4.66-5.55-11.53-.89-15.7,9.66-8.63,16.32,15.41,19.49,21.5,2.84,5.46,7.46,11.04,9.83,16.56,1.93,4.5,2.84,10.35-3.32,11.27-7.25,1.08-9.18-4.68-12.52-9.74-.52-.79-1.66-1.13-1.89-1.52Z"/>
    </g>
    <line class="cls-4" x1="282.58" y1="299.71" x2="281.26" y2="300.75"/>
    <text class="cls-1" transform="translate(337 325.08)"><tspan x="0" y="0">数绘古意</tspan></text>
    <line class="cls-3" x1="86.65" y1="294.62" x2="336.33" y2="294.62"/>
    <path class="cls-2" d="M1019.85,238.25c4.1-37.69-17.21-71.23-55.96-76.52-49.47-6.75-90.25,41.34-68.94,88.42,24.59,54.36,108.96,36.76,106.5-25.16-2.26-56.94-82.83-58.8-92.17-8.59-7.01,37.72,40.59,64.61,64.38,36.03,12.26-14.73,4.85-41.3-16.25-37.99-3.67.57-9.82,4.35-9.06,8.63.68,3.8,5.18,2.42,7.57,2.51,14.39.54,14.49,20.02,1.44,25.53-14.48,6.11-31.96-4.91-35.92-19.38-6.51-23.77,13.28-41.05,35.84-41.38,5.46-.08,9.49,2.67,4.08,6.83-13.66-.21-30.56,5.75-33.73,20.65-2.67,12.59,5.47,25.85,18.46,27.8,6.42.97,14.84-1.82,13.76-9.7-.65-4.77-6.29-2.82-9.02-3.01-9.95-.71-12.26-12.98-5.75-19.71,11.15-11.53,31.33-5.58,38.14,7.76,11.62,22.76-7,48.24-30.98,49.74-52.41,3.28-69.22-64.7-24.97-89.98,32.61-18.63,73.64-1.48,80.09,36.18,7.17,41.85-28.08,77.39-73.67,70.18-4.08,0-4.27.08-7.85,0-6.4-.16,4.58,13.37,7.82,15.02,4.57.11,12.04.14,16.92-.3,35.81-3.26,65.19-26.15,69.26-63.57Z"/>
    <line class="cls-3" x1="933.7" y1="294.62" x2="684.02" y2="294.62"/>
  </g>
</svg>